<svg xmlns="http://www.w3.org/2000/svg" viewBox="0 0 969.95 80.4"><path d="M153,36a1.54,1.54,0,0,1-1.46,1.54c-1.13.12-1.85-1.06-3.17-.88-.92.13-2.08.79-3.12,1a27.69,27.69,0,0,1-5.42.3c-.79-.13-1.71-1.25-2.5-1.5s-1.88-1-1.54-1.75,1.54-1.34,1.79-2,.58-1.54,3.42-1.5,9.5,1.71,10.41,2.42A4.91,4.91,0,0,1,153,36Zm-1.37,13.29c-.69-.22-4.5.06-5.34,0s-1.6-1.41-2.32-1.47-5.18,1-6.12,1.9-1.34,1.79-.88,2.91,3.29,1.66,3.94,2.31a19,19,0,0,1,7-2.38,6.66,6.66,0,0,0,4-1.74C152.44,50.22,152.32,49.51,151.63,49.29Zm-1.84,12.43a48.7,48.7,0,0,0-5.88,1.54c-1.19.53-.9.81-1.56,1.12s-.78-.19-1.41,0-.72,1.31-1,1.81-1.06,1-1.15,1.82.09,3.06,1,3.37c.65.23,5.19-4.24,6.15-4.5a10.1,10.1,0,0,0,4.82-3.9C151.23,61.83,150.63,61.54,149.79,61.72Zm24.06-5.95a3.17,3.17,0,0,0-.79,1.93,2,2,0,0,0,1.29,1.46,24.16,24.16,0,0,0,3.45.3,32.85,32.85,0,0,1,3.3-.15,12.09,12.09,0,0,1,2,1c.46.27.77,1.37.48,1.71s-.9.14-1.52.18a28.56,28.56,0,0,1-3.57-.64,21.38,21.38,0,0,0-4.47.16,1.46,1.46,0,0,0-.75,1.52c.06.67.72.86,1.45,1s3.9-.27,4.61-.25,4.27.17,4.77.52.48,1,.71,1.19,1.58,1,1.6,1.46-.71.79-1.5.6-5.54-.38-5.58.25,1.14,1,1.54,1.36.4,1.37.6,1.85.61.67,1,1.57a3,3,0,0,1-.16,2.39c-.21.13-.88.33-1.63-.89s-3.92-3.57-5-4.44a5.17,5.17,0,0,0-3.6-1.19c-.75.23-.36.52-1.15,2.17s-4.37,5.12-5.46,5.89a17.41,17.41,0,0,1-4.48,1.77c-.68.15-2.35-.39-.23-1.31a32.22,32.22,0,0,0,6.63-4.62c.48-.59.17-1.07.37-1.52s.85-1,1-1.48a1.55,1.55,0,0,0-.13-1.59c-.42-.45-2.28-.34-3.48-.33a15.39,15.39,0,0,0-3,.33c-.56.15-.52.42-1.15.82a6.4,6.4,0,0,1-2.81.35c-1,0-1.27-.52-1.52-1.33s.83-1.15,1.25-1.75a2.27,2.27,0,0,0,.13-1.9c-.15-.58-.85-.34-.88-1.73,0-.77,1-1,1.21-1.44s-.17-1.45-.13-2.37.36-6.33-.08-7.08-1.42-1.44-1.67-2a2.08,2.08,0,0,1,.25-2.34,4.59,4.59,0,0,1,2.65-1c.75,0,5.87.19,6.58.19a16.38,16.38,0,0,0,3.4-.48,1.64,1.64,0,0,0,.33-2.16,1.56,1.56,0,0,0-1.93-.43c-.58.27-.58.82-1.46.61s-.69-1-.94-1.64-.92-1.21-1.08-2.21-.46-4-1.67-4-1.83.71-3.08,1a3.72,3.72,0,0,1-3.59-1.91c-.25-1,.71-2.34,2.5-2.8s3.61-.08,4.13-.79.05-2.91-.09-3.24-.93-1.36-1.31-2.05a2.47,2.47,0,0,1,.17-2.44,1.72,1.72,0,0,1,1.91-.08A3.58,3.58,0,0,1,165.27,26c.6,1.48.18,2.5.66,4.17s1.46,2,2.11,2.08,1.89-.25,2.66-.22a12.69,12.69,0,0,0,2.61.18,2.76,2.76,0,0,0,2.06-1.39,29,29,0,0,0,.13-4.17c0-.67-.48-2.85.06-3.67a2.79,2.79,0,0,1,2.41-1.2c.63.16,1.23,1.5,1.32,2.47A16,16,0,0,1,178.6,28a11.26,11.26,0,0,0,.06,3.5c.21.27.69.37,1.42.52a16.78,16.78,0,0,1,2.75,1.35c.23.1,1.31.35,1.48,1s-.38,1.17-.63,1.44a2.22,2.22,0,0,1-2,.14c-.73-.31-3.06-.43-3.46-.06a5.14,5.14,0,0,0-.54,2.48c0,.58-.1,2.79-.52,3.17a6.4,6.4,0,0,1-2.16.73c-.25,0-2.2,0-2.51,0a.81.81,0,0,0-.7.92,6.19,6.19,0,0,0,2,2.82c.48.08,6,0,6.71,0s4.25-.08,5,0,.91.8,1,1.77a7.41,7.41,0,0,1-1.32,3.4c-.41.54-1.12.6-1.37,1.56a9.21,9.21,0,0,1-1.77,3.15,7.88,7.88,0,0,1-1.59-.23C179.66,55.5,174.14,55.52,173.85,55.77Zm-12.56-3.46a2.9,2.9,0,0,0,1.73.37,18.62,18.62,0,0,1,2.2-.56c.73,0,1.48.33,1.8.27a12.1,12.1,0,0,0,2.89-.46c.44-.31.79-2.41,0-2.77s-6.86-.35-8,.27A2.23,2.23,0,0,0,161.29,52.31Zm8.15,9.91c-.86-.54-2.67-.07-3.15,0s-1.5-.07-2.33,0-2.66,1-2.41,2.22c.16.78,2.21.43,3.14.31a17.6,17.6,0,0,1,2.46.16c.56-.05,1.9.07,2.45-.36A1.51,1.51,0,0,0,169.44,62.22Zm.93-5.41A2.07,2.07,0,0,0,169,56a36.89,36.89,0,0,0-6.27.36c-.94.23-1.36.46-1.55,1.14a6.36,6.36,0,0,0,0,2.13c.09.8,2.48.23,3,.15a27.94,27.94,0,0,1,4.4-.21c1.17.1,1.77,0,1.92-.57A3.93,3.93,0,0,0,170.37,56.81Zm2.95-18.27a1.16,1.16,0,0,0,1-1.22,1.83,1.83,0,0,0-1-1.64,12.22,12.22,0,0,0-4.19-.19,1.09,1.09,0,0,0-.67,1c0,.44-.56,1.91.79,2.19A11.8,11.8,0,0,0,173.32,38.54ZM174.5,52.2c.75.3,1.95,0,2.68,0a12.76,12.76,0,0,0,2.9.11,5.85,5.85,0,0,0,1.67-2.38c.22-.73-.07-.89-.55-1.1a39.29,39.29,0,0,0-6.08-.29,2.15,2.15,0,0,0-1.79,2A1.61,1.61,0,0,0,174.5,52.2Zm47.37,15.32c.08.44-.32.91-.94,1.23a47.43,47.43,0,0,1-6.75,1.64A17.77,17.77,0,0,1,206,69a26.44,26.44,0,0,0-10.64-1.4c-3.33.12-5,1-5.21,1.46a1.3,1.3,0,0,0,0,1.17,5.48,5.48,0,0,1-.27,2.66c-.31.77-.85,1-1.19.88s-.75-.92-.83-1.44.38-1.65.21-2.19-.65-1-.81-1.66.37-1.55.43-2.71a4.28,4.28,0,0,1,1-2.82c.82-1.1,1.25-5.77,1.44-6.91s.38-7.42.38-9.77a12.36,12.36,0,0,0-1.36-5.36c-.5-1-1-1.52-2-1.48S183,42.29,182,42.79s-1.57.25-1.79,0-.25-.44.25-1.27,3-3,3.95-4.17,2.55-2.08,4-3.58,2.38-2.88,3.67-6.63a5.16,5.16,0,0,1,5,2.63A1.76,1.76,0,0,1,196,30.93a11.78,11.78,0,0,0-1.48,1.67c-.56.67-1.48,1.44-2.17,2.17s-.33,1.29,0,1.52,1,.1,2.12,0a43.3,43.3,0,0,0,4.9-.71,3,3,0,0,0,1.69-1.23c.56-.64.58-2,.66-3.42a5.51,5.51,0,0,0-.64-2.56,2.06,2.06,0,0,1,.54-2c.81-1,2.29-.81,3.42-.6A2.55,2.55,0,0,1,207,28.06a10.1,10.1,0,0,1-1.25,3.25,14.12,14.12,0,0,0-1.6,3.33,1.23,1.23,0,0,0,.79,1.15c.36.1,1.31-.17,1.61-.11s.35.32.75.36a6.07,6.07,0,0,1,1.87.48c.46.27.83,1,1.19,1.31s1.52,1,1.6,1.14a.48.48,0,0,1-.27.61,15.53,15.53,0,0,1-2.77.06c-.83,0-3.48-.19-4-.21s-.87.61-1,.88-.14,3.19-.21,4.54.42,2.27,1,2.35a12.82,12.82,0,0,0,2,0,15.12,15.12,0,0,1,3.92.46,2,2,0,0,1,1.13,2c-.05.27-.21.54-.9.79a7.75,7.75,0,0,1-3.38-.12,15.52,15.52,0,0,0-3-.3,1,1,0,0,0-.9.5c-.23.33.08,1.8-.17,2.09s0,1.27,0,2a1.23,1.23,0,0,0,1,1.35c.73.23,3.54,0,4.33.29a5.32,5.32,0,0,1,1.92,1.9,1.05,1.05,0,0,1-.19,1.21,2,2,0,0,1-2.39.17c-1.21-.59-3.44-.4-4.19-.44s-.81.56-.83.81.2,1.13-.05,1.54a3.12,3.12,0,0,0-.2,1.73A1.33,1.33,0,0,0,204,64.43c.62.11.64-.18,1.52.07a24.1,24.1,0,0,0,2.74,1c.9.12,2.19-.26,2.92,0s1.09.77,1.75.89,1.11-.39,2.27-.18a26.2,26.2,0,0,0,2.61.58c.54,0,1.27-.35,1.6-.35a5.38,5.38,0,0,1,1.23.35C220.89,67,221.81,67.19,221.87,67.52ZM199,61.93c0-.21.27-1,.25-1.56s-.59-1-1.19-1.27a11.21,11.21,0,0,0-5.21.46,1.57,1.57,0,0,0-.69.91,6.85,6.85,0,0,0-.16,2.78c.23.83.81.77,1.14.83s.75-.21,1.48-.15a13.45,13.45,0,0,0,2.63.09,4,4,0,0,0,2-1.25C199.52,62.45,199.08,62.14,199,61.93Zm.71-10.87a1.69,1.69,0,0,0-1.23-.79,37,37,0,0,0-5.05.6c-.77.23-.93,4.23-.58,4.69a2.52,2.52,0,0,0,1.63.94c.5,0,2.06-.15,2.58-.21a13.32,13.32,0,0,0,1.58-.07c.46-.12.77-.81.94-1.31A14.26,14.26,0,0,0,199.75,51.06Zm.32-8.52c0-1.38.09-2.25-.91-2.82s-6.21-.5-7,.54c-.28.38-.13,1.53-.11,2.05s.56,1.29.64,1.85-.29,1.88-.14,2.54a1.41,1.41,0,0,0,1.29,1.11,19.36,19.36,0,0,0,2.79-.49c1.25-.19,3-.56,3.31-1.06S200.1,43.91,200.07,42.54Z" transform="translate(-9.02 -10.8)"/><path d="M273.72,42.16a6.21,6.21,0,0,0-3.46-2.94,82.17,82.17,0,0,0-9.85-2.28c-3-.34-8.31-.22-9-.43s-1-2.41-1.31-3.75a24.86,24.86,0,0,1-.44-3.41,3.77,3.77,0,0,0-2.4-2.56c-.94-.13-1.13.47-1.47.78s-1.07.53-1.66,1.06a1.62,1.62,0,0,0-.55,1.74,19.65,19.65,0,0,1,1.11,2.34,6.62,6.62,0,0,1,.19,2.5,1.78,1.78,0,0,1-1.48,1.06c-.75,0-7.13-.19-8-.23s-7-.11-8.18.11a6.28,6.28,0,0,0-3.34,1.73A2.56,2.56,0,0,0,223,40c0,.53.3,1.06.35,1.83.07,1.34-1.22,1.65-1.21,2.53s1.22,1.09,1.56,1.84a13.88,13.88,0,0,1,.88,4,52.45,52.45,0,0,0,.72,5.22A8.65,8.65,0,0,0,227.51,59c.53.29,1.46.57,1.87-.15s.56-1.91,1.41-2.41a21.8,21.8,0,0,1,6.56-1.12c1.75,0,5.37-.32,6.31-.07s1.35.44,1.6.85-.29,7.34-.44,8.15a7.73,7.73,0,0,0-.22,2.57A14.77,14.77,0,0,0,245.94,71c.57.75,1.75,1,2.1.19a42.4,42.4,0,0,0,1.89-7.89c.17-2.27.51-6.3.67-7a1.89,1.89,0,0,1,1.78-1.19c.81,0,8.81-.59,10.59-.06a6.54,6.54,0,0,0,3.57.4,2.17,2.17,0,0,0,1.62-1.28c.22-.59-.34-1,.06-2s.69-.71,1.19-1.25,1.6-3.18,2.1-3.78a21.09,21.09,0,0,0,1.9-2.78A3.36,3.36,0,0,0,273.72,42.16ZM246.06,50a2.47,2.47,0,0,1-2,1.54,21.7,21.7,0,0,1-2.88,0c-1.06.06-2.91.5-3.45.56a33.11,33.11,0,0,1-5.67-.08c-1.06-.27-1.21-.9-1.27-1.71s-.15-3-.31-3.77-.36-3.15.7-4c1.24-1,4.07-.79,6.19-.9s6-.47,7,0,1.31,1.36,1.36,2.57-.09,3.45.06,4.08S246.31,49.5,246.06,50Zm20.76-2.08c-.72.91-.72,2-1.28,2.53s-1.16,1.19-4.1,1-6-.12-6.78-.15-1.15.31-1.94.25a2.37,2.37,0,0,1-1.84-1.5c-.09-.6.09-3.25.09-4.25s-.31-1.85-.21-2.53A1.81,1.81,0,0,1,251.82,42c2.06-.75,7.94-.21,9.06-.15s4.84.12,5.81.53,1.41.69,1.57,1.37A8.86,8.86,0,0,1,266.82,47.94Z" transform="translate(-9.02 -10.8)"/><path d="M289.62,33.66c-1,.94-4,1.81-5.19,2s-3.16.54-3.71.61a1.13,1.13,0,0,0-1,1.43,22,22,0,0,1,.68,4.34c0,.83.42.73.38,1.33a26,26,0,0,1-.52,2.6,26.11,26.11,0,0,0-.65,4.36,6.25,6.25,0,0,0,.13,2,.72.72,0,0,0,1.2.33,9.51,9.51,0,0,0,1.88-3,12.87,12.87,0,0,1,1.46-2.6c.16-.23.41-2.44.64-2.84s.15-1.56.4-1.89a25.41,25.41,0,0,1,6-2.34c1.35-.18,5.15-1.18,6.15-1.16s1.79-.73,2.41-.75,2.15.16,3,.12a72.49,72.49,0,0,1,7.65-.52c2.08.15,9.45.54,11.45,1s4,.67,4.73,1,1.52.92.94,1.5a12.22,12.22,0,0,1-3.42,1.94c-1.43.6-4.1,1.6-4.79,1.81a4.12,4.12,0,0,1-1.64.34c-.43-.07-.89.12-1.46-.12A5.94,5.94,0,0,1,315,44.2a4.56,4.56,0,0,0-1.83-.4,17.67,17.67,0,0,1-1.79-.61,20,20,0,0,0-2.25-.14,14.45,14.45,0,0,0-2.38-.23c-.67.08-1.67.25-1.91.25a9.18,9.18,0,0,0-1.53-.36c-.53,0-6.1.7-7.93,1.16A7.08,7.08,0,0,0,292.79,45a6.7,6.7,0,0,0-1.44.43c-.52.32-1.52,1.36-1.22,2.34s.69,1.52,1.63,1.61a5.11,5.11,0,0,0,2.75-.92,8.13,8.13,0,0,1,2.29-.72c.69-.16,1.47-.61,1.78-.66a6,6,0,0,0,1.82,0,7.06,7.06,0,0,1,2.25-.3c.56,0,2.45-.11,3-.05a3.68,3.68,0,0,1,1.6.39c.29.25.67.8.36,1s-.68.73-1.14.89-1,.59-1.6.82a14.29,14.29,0,0,0-2.2,1c-.84.5-3.08,1.39-3.5,2s-.09.87-.31,1.37-1.41,1-2,1-4.84.5-6.55.48a11.34,11.34,0,0,0-3.57.5,5.21,5.21,0,0,0-2.61,2.21,10.52,10.52,0,0,0-.88,2.21c0,.32,0,1,1.33,1.07a9.49,9.49,0,0,0,4.23-.75A16.35,16.35,0,0,1,293,59.65c.73-.08,5.18-.33,7.36-.32s7.85.27,9.21.54,1.35,1.2,1.36,2.25a12.43,12.43,0,0,1-.11,2.82c-.18.94-1.17,1.28-2.21,1.71s-2.52.65-3.35.93-1.11.71-1.58.82-5.75.62-6.7.62a40.62,40.62,0,0,1-4.08-.3c-.58-.1-1.14-.23-1.59-.29s-1.17.06-1,.47a9,9,0,0,0,2.44,1.59,19.68,19.68,0,0,0,6.33,1c2.56,0,5.39-.31,6.23-.2a25.13,25.13,0,0,0,3.14.86c1.33.09,1.66,0,2.05-.27s1-.83,1.31-1a6.63,6.63,0,0,0,1.41-1.22,8.13,8.13,0,0,0,.48-2.39c0-.41-.2-.58-.23-1s.14-1.11.15-1.77-.25-1.28-.22-2.26a4,4,0,0,1,.21-1.49,1.17,1.17,0,0,1,1-.56c.6,0,6,.24,7.81.41s7.8.83,8.72.81A6.48,6.48,0,0,0,333.8,61a1.67,1.67,0,0,0,.83-1.18,1.57,1.57,0,0,0-.58-1.14,6.1,6.1,0,0,0-1.5-.64c-.5-.19-.9-.71-1.58-.82s-1.32.11-2.09,0-2.3-.48-2.92-.59-4.91-.36-5.83-.41-6.42-.32-8.3-.59a12.55,12.55,0,0,1-4.11-1.44.82.82,0,0,1,.16-1.45,24,24,0,0,1,4.67-1.8,38.29,38.29,0,0,1,4-.51c1.08,0,1.2-.49,1.33-.75a2.49,2.49,0,0,0,.48-1.28c0-.57-.51-1.16-.28-1.64s1.53-.69,2.71-.83,4.64-.52,5.37-.75,5.56-2.31,6.28-2.75a3.38,3.38,0,0,1,2-.3,5.34,5.34,0,0,0,1.78,0c.35-.17,1-.73.85-1.28s-.75-1.62-3.47-2.47-4.16-1.54-5.42-1.92-3.24-.69-4.08-.91S320.76,34.38,319,34a28.46,28.46,0,0,1-3.93-.8c-.46-.29-.75-.87,0-1.34S318,30.32,318.32,30a5.55,5.55,0,0,1,2.17-1.21,3.77,3.77,0,0,0,2.19-1.4,2.37,2.37,0,0,0,.17-2.17c-.36-.64-.33-.82-.56-1.13a3.26,3.26,0,0,0-2.11-.61,19,19,0,0,1-2.47.13c-.86-.1-1.31.9-1.41,1.39a3.64,3.64,0,0,1-1.14,1.83c-.48.29-.29.78-.69,1.17a25.91,25.91,0,0,1-2.28,2A9,9,0,0,0,311,31.07c-.3.28-.55.19-.72.23s-.67.85-1.08,1a1.83,1.83,0,0,1-1.77-.06,1.22,1.22,0,0,1-.45-1.62,11.64,11.64,0,0,0,.41-2.69,12.59,12.59,0,0,0-.74-3.66c-.31-.56-.56-1.11-1.37-1.25a2.86,2.86,0,0,0-2.14.69c-.47.39-1.07.95-1,1.62s0,2.07.44,2.52,1.8.89,2.4,1.75a2,2,0,0,1,.24,2.23,1.94,1.94,0,0,1-1.59.55,3.63,3.63,0,0,0-1.18.28,5.52,5.52,0,0,1-1.14-.22c-.48-.06-.59.38-1.09.39s-.91.19-1.55.22-1.26.19-1.75-.29a15.48,15.48,0,0,1-2.06-3.58,9,9,0,0,0-1.73-3,2.39,2.39,0,0,0-1.27-.67c-.31,0-.81.42-1,.51a7.79,7.79,0,0,0-1.81.83c-.42.39-.22,1.14-.33,1.64s-.94,1-1.09,1.67.68,1.52,1.1,1.68a2.41,2.41,0,0,1,1,.67A.92.92,0,0,1,289.62,33.66Z" transform="translate(-9.02 -10.8)"/><path d="M366.47,57.45c-.28-.1-1.39-.73-1.81-.89s-1.31-.65-1.81.13-.33,5.08-.31,6.1.21,5.48.06,6.43-.6,2.34-.73,2.92a6.55,6.55,0,0,1-.62,1.73c-.23.35-1,1-2.12,0A15.9,15.9,0,0,1,357,71.62c-.35-.33-.29-5-.1-6.33a35.62,35.62,0,0,0,.16-6.75c-.25-.75-1.08-1.37-1.74-1.09s-1,1.23-1.63,1.8-1.83,1.43-2.43,2-2.75,2.54-3.55,3.23-2.35,1-3.52,1.5a24.29,24.29,0,0,1-4.41,2,18.57,18.57,0,0,1-3.19.53c-.42,0-.92-.42-.19-.88s3.29-2.37,3.94-2.75a25.37,25.37,0,0,0,2.42-1.08c.66-.48,1.75-1.48,2.12-1.79s1.06-.46,1.61-.94,2.77-2.46,3-2.75A7.48,7.48,0,0,1,350.66,57c.54-.41,1.38-.91,1.52-1.25a7.4,7.4,0,0,1,1-1.43,10.66,10.66,0,0,0,1.36-1.48,20,20,0,0,1,1.6-2.29,4.52,4.52,0,0,0,.81-1.26,4,4,0,0,0,.26-.84c0-.39-.46-.93-2-.88a19.4,19.4,0,0,0-5.92,1.12A21.44,21.44,0,0,0,345,50.52c-.73.5-4,.48-4.73.29s-1.18-.52-1.29-1.17a9.57,9.57,0,0,1,1.59-4,4.21,4.21,0,0,1,3-1.4c1.58-.22,6-.79,8.12-.93s5-.07,5.46-.21a1.55,1.55,0,0,0,.82-.82,2.4,2.4,0,0,0,0-1.41,3,3,0,0,1,.07-1.32,2.73,2.73,0,0,0-.35-1.1,13.73,13.73,0,0,1-.18-4.31,3.86,3.86,0,0,1,1.11-1.59c.42-.42.48-1.13.78-1.61s1.56-1.57,2.54-1.3c1.44.39,1.46,2.42,1.59,3.75s-.05,2.79.12,3.71-.46,2.5-.21,3.54,1,2.19,1.77,2.29,2.42,0,3.32.4a4,4,0,0,1,1.75,1.48c.16.39,0,.89.08,1.14s.48.42.39.82a1.11,1.11,0,0,1-.93.77c-.44.07-2.15-.17-2.91-.17a6.49,6.49,0,0,0-2.49.25c-.59.32-.75,1.71-.64,2.6a4.53,4.53,0,0,0,1.2,2.14c.34.38,1.52,1.24,2,1.78a8.21,8.21,0,0,1,1.29,2c.16.51.37,1-.06,1.34S366.75,57.56,366.47,57.45ZM415,74.4a56.75,56.75,0,0,1-6.38,0c-2.41-.12-6.79-1.46-9.09-2.26a34,34,0,0,1-7.52-4.6c-.78-.75-3.85-2.84-4.27-3.13a1.21,1.21,0,0,0-1.52-.12c-.69.41-3.71,3.41-4.45,4a32.48,32.48,0,0,1-6.51,2.85,16.33,16.33,0,0,1-5.57.13c-.85-.15-1.49-.66-2.26-.79a4.55,4.55,0,0,1-1.93-1.13c-.23-.25,0-.5.21-.56a3.31,3.31,0,0,1,1.1-.11,19.61,19.61,0,0,0,3-.09,21.49,21.49,0,0,0,4.06-1.11c1.14-.41,3-1.31,3.42-1.53s1.92-1.4,2.4-1.72a11,11,0,0,0,1.58-1.08l1.36-1.65a1.06,1.06,0,0,0,0-1.14c-.31-.37-1.3-1-1.43-1.12a19.15,19.15,0,0,0-1.82-1.58A5.71,5.71,0,0,1,378,56.46a6.85,6.85,0,0,0-1.59-1.69,1.49,1.49,0,0,0-1.34.06,9.06,9.06,0,0,0-1.37,1.5,2.27,2.27,0,0,1-2,1.25c-1.51.2-1.19-1.13-1.14-1.6a2.43,2.43,0,0,1,.55-1.69c.54-.58.49-1.07.95-1.81a5.82,5.82,0,0,1,2.07-1.79,13.94,13.94,0,0,0,2-1.72c.41-.35,1.24-1.57,1.07-1.85s-.6-.16-1-.13a7.67,7.67,0,0,1-1.51,0c-.44-.06-1-1-1.69-2a1.51,1.51,0,0,1,.22-2.05c.29-.18.86-.1,1.05-.26a2.31,2.31,0,0,0,.53-1.09c.14-.54.46-1.27,1.21-1.19s1.29,1.1,2.64,1.13,4.32-.35,5-.82.71-1.63.76-1.9a8.92,8.92,0,0,0,.12-2.47c-.18-.46-.67-.57-.73-.81s.14-.55,0-.78A4.71,4.71,0,0,1,383.7,33a2.41,2.41,0,0,1,.61-1.21c.32-.21.83-.17,1-.24a6.49,6.49,0,0,0,.59-.3c.13-.08.68-.15.86-.24a1.83,1.83,0,0,1,.69-.4,1.38,1.38,0,0,1,1.9.78c.5,1,.14,2.61.05,3.26s-.56,3-.75,3.8-.78,2-.31,2.28a4.75,4.75,0,0,0,2,.25c.74,0,1.77.5,2.35.44a19.36,19.36,0,0,1,2.45-.69,14.62,14.62,0,0,1,5.42.42,3,3,0,0,1,2.53,2.41,1.08,1.08,0,0,1-.58,1.11,6.68,6.68,0,0,1-2.1.51c-.75.07-3,.06-3.53.05a12.3,12.3,0,0,0-2.11.2c-.38.09-.41.36-.41.71s.34.67.83.9,1.53.43,2.42.8A17.38,17.38,0,0,1,400,49.62c.64.4,1.42.89,1.78,1.17a6.09,6.09,0,0,1,1.77,2.09c.18.72-.13,1-.46,1.13a1.89,1.89,0,0,1-1.14-.22c-.39-.16-2-.71-2.9-.94a4.54,4.54,0,0,0-2.49-.14c-.53.25-.47.91-1.09,1.58s-1.66,1.18-2.17,1.84-2.5,2.83-3.07,3.41-.23,1.25.24,1.84,3.8,2.58,5.17,3.61a30.85,30.85,0,0,0,5.24,2.64c.4.13,1.4.3,1.59.39s1,.48,1.44.62a14.44,14.44,0,0,1,1.45.37c.31.15,1.1.68,1.3.76a7.87,7.87,0,0,1,1.63.49,26.8,26.8,0,0,0,3.18,1.24c.77.25,2.52.65,3.06.82s1.47.59,1.65,1.11S415.67,74.29,415,74.4ZM390.77,50.87c.33-.6.8-2,.49-2.47s-.93-.5-1.08-1.19.12-1.14-.52-1.39a20.08,20.08,0,0,0-5.39.12,1,1,0,0,0-.67,1.1c0,.33.22,1,.22,1.48a3,3,0,0,1-1.17,1.74,9.42,9.42,0,0,1-2.22.73c-.46.17-1.14.73-1.11,1.11a4.14,4.14,0,0,0,1,1.56c.49.56,1.64,1.21,2.21,1.89a8.94,8.94,0,0,0,2.7,2c.61.21.72.24,1.69-.58S390.44,51.46,390.77,50.87Z" transform="translate(-9.02 -10.8)"/><path d="M618.5,39a3.89,3.89,0,0,1,.21-2.39,3.65,3.65,0,0,1,2.15-1.11,21.38,21.38,0,0,1,4,0,10.3,10.3,0,0,1,2.35.71c.52.18,1.53.41,2.56.64a4.73,4.73,0,0,1,2.14,1.43,15.12,15.12,0,0,1,2,2.71c.1.42-.34.58-.86.61s-1.4-.14-2.31-.16a30.11,30.11,0,0,0-5,.28c-.71.27-1.75,1.68-2.39,1.61s-.81-.68-1.07-1-1.34-.75-1.83-1.22A11.23,11.23,0,0,1,618.5,39Zm9.85,20.43a1.07,1.07,0,0,0-.88.58,4.73,4.73,0,0,1-1.35,1.51,12,12,0,0,1-1.91.72A8.59,8.59,0,0,0,623,63c-.31.18-.78,0-1.27.17a2,2,0,0,0-1,.47,1.48,1.48,0,0,1-.85.34c-.31,0-.91.09-1.12.47s-.38.88-.49,1.1-.39.31-.52.72a7.63,7.63,0,0,0,0,2.24A2.52,2.52,0,0,0,619,70.32c1.42.63,4.43-1.47,5.43-2.81s3.1-4.16,3.69-4.79a8.12,8.12,0,0,0,1.58-1.81c.2-.51.34-.89.11-1.26S628.87,59.27,628.35,59.38Zm36.1,8.28a.64.64,0,0,1-.3.85,3.51,3.51,0,0,1-1.52.08c-.75-.06-2.93-.27-3.48-.29s-4.81,0-5.21,0a3,3,0,0,0-1.29.42,2.22,2.22,0,0,0,0,1.46c.14.14.57.23.8.44a11.25,11.25,0,0,0,1,1,7.13,7.13,0,0,1,1.09.67c.23.25.28.81.38,1a7.68,7.68,0,0,0,1,1.43c.2.13.37.24.61.92s-.62.66-1.1.41A6.22,6.22,0,0,1,654.9,75a30.55,30.55,0,0,0-2.71-1.9,25.39,25.39,0,0,0-2.53-1.19A3,3,0,0,0,648,72c-.31.15-.26.83-.69,1.34s-1.69,1.13-2.42,1.94a18.11,18.11,0,0,1-4.06,2.92,7.62,7.62,0,0,1-3.33,0c-.64-.13-.6-.64-.19-.88a9.34,9.34,0,0,1,1-.4,7,7,0,0,1,.94-1,.89.89,0,0,0,.46-.9c0-.34.28-.31.71-.39s.62-.34.67-.81.27-.65.56-.71a.92.92,0,0,0,.57-.5,2.52,2.52,0,0,0,.24-1c0-.26.36-.33.61-.56s.26-.69.3-.94a1.11,1.11,0,0,0-.55-.88c-.33-.22-1.07-.06-2,0s-3.78.8-4.49,1a5,5,0,0,0-1.63,1.09,1.64,1.64,0,0,1-1.56,0,4,4,0,0,1-1.41-1.32c-.18-.29-.73-.88-1-1.28a.69.69,0,0,1,.14-.91,3.47,3.47,0,0,1,1.31-.44,6.53,6.53,0,0,1,2,.1,1,1,0,0,0,.83-.14.9.9,0,0,1,.64-.33c.38,0,1,.09,1.34,0s1-.29,1.47-.34a8.62,8.62,0,0,0,2.31-.23,11.72,11.72,0,0,1,1.85-.77c.44-.08.78.08,1.4,0s.65-.36.72-.68a.87.87,0,0,0-.48-.9,3.2,3.2,0,0,0-1.9,0,23.64,23.64,0,0,1-3.06.95,8.75,8.75,0,0,1-3.12-.33,1.45,1.45,0,0,1-.9-1.2,1.15,1.15,0,0,1,.53-1.27,10.46,10.46,0,0,0,1.58-1c.49-.37.31-1-.33-1.39a2.36,2.36,0,0,1-1-1.53c-.16-.56-.57-.8-.69-1.7s0-2.21-.09-2.77-.55-.8-.93-1.12a3.23,3.23,0,0,0-2.61-1c-1.48.09-4.15,1.17-5.21,1.31s-4.21.42-5.82.48-2.59-.93-2.59-1.9a4.53,4.53,0,0,1,2.42-3.07,17,17,0,0,1,3.68-.57,18,18,0,0,1,4.93.55c.58.26,1.66.55,2.72.92s1.48.29,1.9-.5A1.85,1.85,0,0,1,635.38,48c.63,0,1.08.67,1.4.79s1.1.07,1.52.14a20.59,20.59,0,0,0,2.38.57,15.87,15.87,0,0,0,3.6-.24c.55-.07.9-.25,1-.57s.39-.95-.28-1.35-2.07-.71-2.35-1.91a11,11,0,0,0-2.37-4.06A5.22,5.22,0,0,0,637,40a2.41,2.41,0,0,1-1.34-1.82,2.77,2.77,0,0,1,.81-1.87c.26-.28,1.1-.76,1.33-1.2A5,5,0,0,0,638,33c-.08-.31-.6-1.57-.43-1.91a2.31,2.31,0,0,1,1.26-.88,5.54,5.54,0,0,1,1.71.13,4.89,4.89,0,0,1,2.39,1.7c.56.79,1.57,2.54,2.44,2.74a18,18,0,0,0,4.39,0,1,1,0,0,0,.16-.6c0-.1.38-.61.32-.84s-.31-.75-.39-1,0-2.39,0-2.83.39-.52.85-.55a16,16,0,0,1,3.62.27,3.67,3.67,0,0,1,1.71,1.3,3.74,3.74,0,0,1,0,2.12c-.19.86-.88.82-.54,1.87a3.54,3.54,0,0,0,1.5,1.79c.36.29,1,.21,1.23.33s.27.61,1,1,1.25.87,1.34,1.3a1.21,1.21,0,0,1-.5,1.2,3.19,3.19,0,0,1-1.73,0,13.62,13.62,0,0,0-2.59-.07,3.48,3.48,0,0,0-1.65,1A9.32,9.32,0,0,0,653,44.84c-.08,1-.61,1.24-1,1.27s-.87-.34-1.46.09-.13,2.25.06,2.82.73.29,1.22.31a16.53,16.53,0,0,0,2.84-.17,47.14,47.14,0,0,1,7.09.06,3,3,0,0,1,1.9,1.79,3.15,3.15,0,0,1-.92,2.56,23.69,23.69,0,0,1-3,1.87,1.52,1.52,0,0,0-.58,1.74,2.79,2.79,0,0,1,.37,1.24c0,.48-.64.27-1.28.13a25.08,25.08,0,0,0-3.49-.1c-1,0-2.27-.39-3.25.07s-.48,2-.11,2.24a5.69,5.69,0,0,0,2.34.37,21.29,21.29,0,0,1,4.08.6,3.44,3.44,0,0,1,1.6,1.05,12.4,12.4,0,0,1,.23,1.4,6.79,6.79,0,0,0,.71,1.24c.16.27.48.29.78.35a4.53,4.53,0,0,1,1.15.33,9.15,9.15,0,0,0,1.1.66A2.07,2.07,0,0,1,664.45,67.66ZM645.8,60.08a2.09,2.09,0,0,0-.77-.93,6.89,6.89,0,0,0-3.17-.08c-.34.15-.72.8-.87.84s-.33.26-.22.36a3.23,3.23,0,0,0,1,.5,6.72,6.72,0,0,0,1.5.14c.22,0,.49-.21.79-.26s1.16,0,1.32,0S645.89,60.2,645.8,60.08Zm-.21-7.63a12,12,0,0,0-4.38.22,1.85,1.85,0,0,0-.47,1.51c0,.59.33.82.45,1.28s.18.37.72.44a17.68,17.68,0,0,0,3.52-.18,3.89,3.89,0,0,0,.67-.61c.2-.2.13-.58.24-1A2.24,2.24,0,0,0,645.59,52.45Zm3.47-11.1c.1-.84-.3-1.22-.91-1.09a8.41,8.41,0,0,0-1,.52,1.48,1.48,0,0,0-.65.85c-.12.34.19.51.25.63a1.22,1.22,0,0,0,.68.7,1.11,1.11,0,0,0,1-.06C648.79,42.7,649,42.19,649.06,41.35Zm1.82,11.78c0,.59.06,1.28.37,1.39s.65.15.78.32.4.51.52.45.19-.41.3-.46.59-.58.8-.63.61,0,.69-.06,0-.34.12-.55a9.36,9.36,0,0,1,.74-.85,5.12,5.12,0,0,0,.42-.93c.08-.21-.22-.28-.52-.28s-3.43-.14-3.87.15S650.9,52.55,650.88,53.13Zm2,11.19c-.33-.33-1-.57-1.24-.43s-.19.55-.39.71-.52.49-.37.66.74.13.93.16a2.28,2.28,0,0,0,.82.1c.21-.07.17-.32.48-.46S653.17,64.65,652.85,64.32Zm51.91,7.25a9.33,9.33,0,0,0-2.27.92,11.11,11.11,0,0,1-4.36.69A24.29,24.29,0,0,1,691.05,72a29.36,29.36,0,0,0-5.7-1.55,65,65,0,0,0-7.55-.31,43.09,43.09,0,0,0-6,1,5,5,0,0,0-2.57,1.06A5.76,5.76,0,0,0,668.12,74a.92.92,0,0,1-1.72-.31A7.55,7.55,0,0,1,666,69.9c.27-1.28,1-3.94,1.16-4.88s.36-4.44.42-4.75a6.58,6.58,0,0,1,.33-.86c0-.14-.17-.36,0-.73a5.7,5.7,0,0,0,.35-2.27c0-1.47-.33-7.4-.64-9.59a20.34,20.34,0,0,0-.8-4,1.07,1.07,0,0,0-1.19-.61,12.41,12.41,0,0,0-3,1.74,24.77,24.77,0,0,1-2.43,2c-.57.32-1.6.71-1.47-.82s1.7-2.84,2-3.75.36-1.07.81-1.39a8.92,8.92,0,0,0,1.78-1.5,13.12,13.12,0,0,1,2-2.43,12.27,12.27,0,0,0,2.25-2.35,12,12,0,0,1,2.38-2,4.61,4.61,0,0,1,4-.13,1.7,1.7,0,0,1,.5,1.94,15.07,15.07,0,0,1-2.7,2.94,2.32,2.32,0,0,0-.85,1.42c0,.55.77.67,1.52.61s2.54-.22,3.11-.22a24.48,24.48,0,0,0,3.42-.16,1.33,1.33,0,0,0,.87-1.07c0-.27.35-3.74.35-4.44s-.21-1.69,0-2a2.93,2.93,0,0,1,2.16-.44c1,.13,2.5,0,3,.33s.8.66.66,1.75a6.15,6.15,0,0,1-.92,2.94c-.6.78-1.06,1-.81,1.62s2.43.5,3.1.5a32.78,32.78,0,0,1,4,.35,24.6,24.6,0,0,1,2.86.61,5.21,5.21,0,0,1,1.6,1.26c.24.28,1,.58,1,1.3a1.56,1.56,0,0,1-.86,1.62,13,13,0,0,1-3.62,0c-.71-.12-2.53-.5-3.1-.58s-.65-.37-.93-.56a.69.69,0,0,0-.86.16c-.16.2-1.18.14-1.61.34a1.14,1.14,0,0,0-.75,1c0,.49-.07,3.17,0,3.83s-.09,1.72.22,2.11,1.84.33,2.51.3a14.12,14.12,0,0,1,3.46.29,7.34,7.34,0,0,1,3.25,1.69c.58.7.9.8.81,1.48s-.45,1.08-1.62,1.19a22.27,22.27,0,0,1-3.6-.05,21.35,21.35,0,0,0-4.65,0c-.71.26-1.19,2.11-1.16,3s.44,1.43,1,1.55a23,23,0,0,0,2.63.06,7.41,7.41,0,0,1,3.34,1.36,9.27,9.27,0,0,1,1.91,2c.22.55-.34.8-.86.75s-2.08-.32-3-.4-3.72-.39-4.27-.44-1.28-.09-1.64.55a7.52,7.52,0,0,0-.48,1.89,3.52,3.52,0,0,0-.39,1.7,1.4,1.4,0,0,0,1.42,1.31c.89,0,2.91.08,3.83.24s2.26.95,3.87,1.18,5.32.65,6.53.79,3.55.53,4.69.78a7.52,7.52,0,0,1,2.13.54C705.32,70.87,705.62,71.35,704.76,71.57ZM677,62.41a13.82,13.82,0,0,0-5.16.53c-.65.38-.84,1.53-1,2.47a2.82,2.82,0,0,0,.12,2.08c.28.44.72.39,1.5.28a9.86,9.86,0,0,0,1.8-.51,17.14,17.14,0,0,1,2.17-.27c.34,0,.78,0,.91-.47a20.34,20.34,0,0,0,.43-2.48C677.85,63,677.47,62.65,677,62.41Zm3-7.76c-.12-.46-.73-.69-1.51-.77a31.7,31.7,0,0,0-6.54.91,1.22,1.22,0,0,0-.5,1,20.88,20.88,0,0,0,0,2.75,1.44,1.44,0,0,0,.79.77,10.7,10.7,0,0,0,3,0c.42-.08,3.51-.55,3.75-.63a1.31,1.31,0,0,0,.75-.82c0-.36,0-1.32,0-1.58A3.77,3.77,0,0,0,680,54.65Zm.33-10.18c0-1.31-.16-1.71-.78-2s-7.21.22-8.13,1.21c-.53.58-.4,2.79-.31,3.06s.08,2.37.14,3,.34.83.72.62a6.84,6.84,0,0,1,2.18-.46c.74,0,2.44-.08,3.31-.18s2.71-.44,2.87-1A37.77,37.77,0,0,0,680.35,44.47Z" transform="translate(-9.02 -10.8)"/><path d="M708,39.29c-.77-.27-1.65-.13-2.4-.44s-1-2.52.83-2.94a65.38,65.38,0,0,1,7.86-.83c1.75-.08,6.75-.11,7.79-.17s4.37,0,5.92-.16,2-.48,1.75-1.3a11.61,11.61,0,0,0-1.25-2.31A9.21,9.21,0,0,1,727.6,29c-.13-.41-.48-1.27.29-1.6a7.23,7.23,0,0,1,2.67-.42,10.14,10.14,0,0,1,2.12.52,4.68,4.68,0,0,1,1.63.4,1.28,1.28,0,0,1,.79,1.42c-.08.52-.48,1.27-.48,1.56a4.28,4.28,0,0,1-.06,1.31,2.86,2.86,0,0,0-.21,2c.4.87,10.16,1.13,12.16,1.28s3.38,0,4.17.32,2.34,1,2.67,1.87.06,1.94-.69,2.17a17.64,17.64,0,0,1-5.29-.4,44.6,44.6,0,0,0-5.67-.75c-1.45-.08-13.5,0-15.93.11s-5.44.6-6.5.77-6.17.71-7.46.64A15.49,15.49,0,0,1,708,39.29Zm17.75,12.76c-.22.27-.12.76-.11,1a.48.48,0,0,1-.46.52c-.37.06-.74-.2-1.07-.21s-1.87.13-2.39,0-.66-.71-.76-1.51a13.12,13.12,0,0,0-1.59-4,16.15,16.15,0,0,0-2.26-2.32,8.75,8.75,0,0,1-.53-1.07c-.13-.23-.53-.54-1.23.21a2.42,2.42,0,0,1,.73-2.14,2.82,2.82,0,0,1,1.79-.77c.64,0,1.78.27,2.48.31a31,31,0,0,0,3.28-.06c.93-.07,5.38-.42,7.39-.46s5.81.08,8.29.3a17.43,17.43,0,0,1,5.46,1.38c.81.4,1.45,1.25,1.34,1.53a4.75,4.75,0,0,1-1,1.07,7.13,7.13,0,0,1-1.36.82c-.26.16-.54.49-.83.63s-.75.13-1,.49A13.05,13.05,0,0,1,739,49.37c-.74.28-1.7.26-2,.6s0,.81-.22,1.16a3.25,3.25,0,0,1-1.11,1.13,12,12,0,0,1-2.93.27c-.42,0-.66-.54-.87-.58s-1.36.11-2.12.1-2.46-.22-2.7-.23S726,51.78,725.77,52.05Zm.42-3c.46-.11,2.63-.08,3.58-.09s1.52.39,2.19.19a5.77,5.77,0,0,0,1.42-.6,8.48,8.48,0,0,0,1.34-1.11c.25-.36.24-.89.49-1.14a6.08,6.08,0,0,0,.69-1.2c.14-.27-.11-.47-.44-.58a49.6,49.6,0,0,0-5.83.08c-1.61.12-4.53.25-5.12,1.19-.44.68.45,2.42.68,2.92S725.74,49.16,726.19,49.05ZM756,53.64a3.72,3.72,0,0,0-3.19-.89,23.14,23.14,0,0,0-2.23.7c-.81.19-7.4,0-8.25,0s-5.1,0-5.75-.1a14,14,0,0,1-1.58-.46,44.67,44.67,0,0,0-5.11.27c-.75.08-1.06.5-1.85.65s-6-.17-7.61.23-4.35.95-5.93,1.31-5.16,0-5.86.29c-.94.4-1.16.83-1.19,1.4A5.88,5.88,0,0,0,709,59.7a6.41,6.41,0,0,1,1.62,3.42c.17,1.38,0,4.31.06,4.75s-.35,3.15.55,4.71,2.1,1.17,2.77,0a12.28,12.28,0,0,0,1.54-2.92,24.65,24.65,0,0,0,.35-4.93,25.5,25.5,0,0,0-.27-4.21c-.12-.81-.69-.9-.58-1.15a7.64,7.64,0,0,1,2.58-1.12c.79-.19,5.9-1.21,7.19-1.36s7.89-.48,8.71-.58,6-.27,6.52-.29,10,.21,10.46.37,2.2.86,2.31,1.65a18.5,18.5,0,0,1-.29,3.54,27.2,27.2,0,0,1-1.73,6.29,18.18,18.18,0,0,1-2,2.42,1.35,1.35,0,0,0,.27,2,4.05,4.05,0,0,1,1.23,1.54,1.53,1.53,0,0,0,2.29.25,14.93,14.93,0,0,0,3.94-6.21,37.46,37.46,0,0,0,1.31-9.46C757.85,55.75,757.35,54.79,756,53.64ZM745.92,62a1.45,1.45,0,0,1-.26,2.12,10.66,10.66,0,0,0-2,2.29,2.34,2.34,0,0,0,.49,2.32c.81.62,1.22.72,1.39,1s.1.39-.12.51a3.62,3.62,0,0,1-1.41.31,33.14,33.14,0,0,1-4.89-.2c-.75-.09-2.36-.44-3.47-.56s-6.48,0-7.16.06-.69.31-1.73.6a3.71,3.71,0,0,1-3-.29,2.37,2.37,0,0,1-1.27-2.27,5,5,0,0,0-1.15-3.35c-.83-1.13-2.08-1.38-2-2.34s1.58-2.08,2.21-2.34a17.12,17.12,0,0,1,2.94-.56,60,60,0,0,1,6.78-.43,62.89,62.89,0,0,1,8.45.43A11.7,11.7,0,0,1,745.92,62ZM739,63.06c0-.84-.48-1-1.27-1.21a44.5,44.5,0,0,0-5-.06c-.89,0-5.16.05-5.81.93s-.12,1.94,0,2.42.52,1.88,1.58,2.08a21.11,21.11,0,0,0,4,0c1.16,0,3,0,3.66-.08a1.41,1.41,0,0,0,1.13-.75c.27-.4,1-1,1.06-1.1A8.79,8.79,0,0,0,739,63.06Z" transform="translate(-9.02 -10.8)"/><path d="M825.18,56.51c-.1-.27-.49-.74-.5-1a1.27,1.27,0,0,0-.55-.86A21.69,21.69,0,0,0,819.05,53c-1.87-.31-6.95-.56-8.65-.69s-7.63-.19-8.35-.33A1.51,1.51,0,0,1,801,50.07c.27-.86.41-1.66,1-2s3.26-.14,4.39.17,1.86-.17,3.22-.22,2.39-.08,2.75-.12.76-.3.39-.86-.34-1-.84-1.41a10.87,10.87,0,0,0-2.33-1.47,23.08,23.08,0,0,0-4.53-.32,7.21,7.21,0,0,1-2.46-.18.84.84,0,0,1-.26-1.4,22.67,22.67,0,0,1,3.58-2.14c.48-.27,1.6-1.33,2.23-1.8a33.73,33.73,0,0,0,3.56-3.16,1.92,1.92,0,0,1,1.52-1c.62,0,2.42.09,2.83.09s1.11-.28.76-.8a2.16,2.16,0,0,0-1-.85c-.37-.21-.23-.6-.7-.82a26.21,26.21,0,0,0-5-.93c-2.09-.22-5.75-.33-6.66-.33s-1.73-.07-1.92-.36a4.19,4.19,0,0,1,.58-2.41,12.14,12.14,0,0,1,1.33-1.69,1,1,0,0,0,.23-1.34,5.68,5.68,0,0,0-2.78-1.53,22.6,22.6,0,0,0-4.29-.72c-.83.05-1.18.56-1.15,1.11s.1,1.66.08,2.36a10.68,10.68,0,0,1-.64,3.22,19,19,0,0,0-1.47,3.4c-.22,1.1-.35,1.21-.49,1.24s-1.57-.61-2.36-.82a28.45,28.45,0,0,0-3.72-.53c-.69,0-1.52.19-2,.13a1.16,1.16,0,0,1-.87-.85c0-.23.72-.25.91-.4s.9-.46,1.06-1a5.93,5.93,0,0,0,.42-1.6c0-.48-.6-.84-.71-1a4.79,4.79,0,0,0-.83-1.13,11.93,11.93,0,0,0-3.6-.1c-.71.21-1.52-.65-2.68-.4-1,.21-1.75,2.88-2.22,3.81a10.53,10.53,0,0,1-2.16,2.44c-.53.5-2.05,1.86-2.22,2.09s-.18.56-.27.7-.64,0-.77.17a7.12,7.12,0,0,0-.35.9c-.15.29-2.21,2.7-2.73,3.41s-.88,1.75.5,1.27A29.91,29.91,0,0,0,775,37.16,4.32,4.32,0,0,1,778.35,36,12.64,12.64,0,0,1,782.76,37a36.46,36.46,0,0,1,4.75,5.53c.46.83.37,1.35-1,1.36s-7,.22-8.52.25a20.85,20.85,0,0,0-4.17.1c-.89.28-1.28,1.34-2.39,2s-2.58,3.05.44,3.55a11.46,11.46,0,0,0,6.89-.73c2.31-.86,8.86-.8,10-.85s4.18-.4,4.92-.18a1.8,1.8,0,0,1,1.22,1.71c.06.83.06,2.05-1.83,2.16s-8.56.19-10.16.17-9,.24-10.61.28a19.52,19.52,0,0,0-4.56.85,6.56,6.56,0,0,0-2.26,2.08,1.32,1.32,0,0,0,.78,2,11.87,11.87,0,0,0,4.84.34c1.8-.28,4.56-1,6-1.19s1.45.07,2.09-.32,1-.66,1.61-.55a5.69,5.69,0,0,0,2.41.44c1.53-.08,3.66-.35,4.84-.33s10.32-.13,11.55-.14,5.56-.22,6.19,0a1.69,1.69,0,0,1,.89,1.69c0,.81.26,1.83-1,1.89s-10,.33-11.77.35-10.11,0-11.76.11-2.72,0-3.75,0a36.29,36.29,0,0,0-4,.55,5.34,5.34,0,0,0-2.53,1.67c-.58.66-1.1,1.63.28,2.25s1.83,1.47,2.66,1.63a4.15,4.15,0,0,0,2.87-.71,6.83,6.83,0,0,1,2.83-.75c.73-.14,2.44-1,2.95-1a1.87,1.87,0,0,1,1.39.8A17.35,17.35,0,0,0,787,65.85c.66.44,3.66,2.69,4.36,3s1.14.68,1.16,1.11,0,.93-.82,1-6.25-.06-7.56,0-4.75-.11-5.51,0a9.87,9.87,0,0,0-3.22,1.36c-.72.53-.88.82-.86,1.32s.11.89,1.08,1,5.11.05,5.61.06,6.09.28,7,.36,7.58.06,9.37-.09,6.73-.79,7.94-1,2.93-.14,4.48-1.08a4.41,4.41,0,0,0,2.47-3.17,27.34,27.34,0,0,0,.4-4.29c0-.56.08-1.29.75-1.42a25.57,25.57,0,0,1,3.31,0,15.45,15.45,0,0,0,1.9,0c.21,0,.45-.45,0-.79s-.89-.92-1.47-1.37a8.87,8.87,0,0,0-2.45-1.32c-.65-.15-1.19,0-1.47-.17s-.61-.18-.71-1.26a26.38,26.38,0,0,1,0-3c0-.25.07-.52.54-.46l4.13.57c1.14.15,4,.39,5,.61a6.82,6.82,0,0,0,2.26.2C825.05,56.88,825.27,56.77,825.18,56.51ZM794.58,43.2a2.9,2.9,0,0,1-1.31.59,1.84,1.84,0,0,1-1.92-.4c-.58-.6-.52-2.31-.65-3.25s-1.68-3.21-.77-3.71a2.84,2.84,0,0,1,3,.46A6,6,0,0,1,794,40.08a18.21,18.21,0,0,0,.18,2.48C794.37,42.83,794.72,43,794.58,43.2ZM799,38.66c-.53-.53-1.09-1.4-1.78-1.69s-1.5-1.28-1.34-1.9a3.38,3.38,0,0,1,2-1.93,20.35,20.35,0,0,1,6.52-.12c.64.29.44,1,.89,1.29s.19.81-.08,1.06-1.29.75-1.54,1.23a8.53,8.53,0,0,1-.58,1.23c-.23.27-.94.87-1.09,1.39a1,1,0,0,1-1.11.69A4.27,4.27,0,0,1,799,38.66Zm8.4,28.17a5.63,5.63,0,0,1-.69,1c-.06.16.17.5.09.64s-.58.06-.79.15a2.17,2.17,0,0,1-1.13.37c-.48,0-.75.35-.93.6s-1.11.22-1.72.22-.83.42-1.36.56a3.72,3.72,0,0,1-2.26-.53c-.82-.42-2.57-3.58-2.93-4.33s-.53-1.34-1.18-1.57-1.31-.3-1.45-.61-.12-.64.62-.77a111.18,111.18,0,0,1,11.5-.21c1.36.21,2,.39,2.17,1.06A10.11,10.11,0,0,1,807.37,66.83Z" transform="translate(-9.02 -10.8)"/><path d="M883.66,43.23c-.72.58-2.95.75-4,1.09a28.23,28.23,0,0,1-4.11,1.32,56.79,56.79,0,0,1-6,.66c-.57,0-1.1-.49-.28-1.07a26.5,26.5,0,0,1,3.19-1.94,6.84,6.84,0,0,0,1.79-1.46c.28-.31.61-.32.79-.55a2.44,2.44,0,0,0,0-1.82,6,6,0,0,0-2.47-.29c-.43,0-2.61-.33-3.6-.4s-9-.51-11-.51-10,.06-12.75.21a36.25,36.25,0,0,0-6.62.85c-1.54.4-1.93,1.38-2.46,2.34a11.46,11.46,0,0,1-1.81,2.11,12.63,12.63,0,0,0-1.27,2c-.39.75-1.9,1.73-2.67-.35a18.15,18.15,0,0,1-.79-4.09c-.22-.81-.72-2.31-1-3.31s.78-1.63,1.31-2,.62-1.13,1.5-1.19,3.32.1,4.13,0,1.39-.34,2-.36a5,5,0,0,1,1.24.16.8.8,0,0,0,.88-.51.47.47,0,0,1,.63-.23c.17.08.39.13.42-.06s-.21-.52-.36-.62a5.33,5.33,0,0,1-.81-.74c-.19-.24-.33-.56-.69-.72a.94.94,0,0,1-.55-.74c-.08-.36-.64-3.56,0-3.95a10.91,10.91,0,0,1,3.18,0c.29.05.32.48.41.64s1,.06,1.28.16a2,2,0,0,1,.76.85c0,.18,0,.52.05.6s.44.06.7.2a6.41,6.41,0,0,1,1.13,2c.13.48-.39.76-.37,1.08a1.22,1.22,0,0,0,.77,1c.44.09,6.95.08,8.53.13s8.65.64,11.1.91,7.13,1.17,9.17,1.67a26.94,26.94,0,0,1,4.65,1.49A6,6,0,0,1,882,39.69c.48.71.85.73,1.56,1.26A1.48,1.48,0,0,1,883.66,43.23ZM850.23,27c0,.39-.08,1.6,0,1.88s.43.37.52.6,0,.39.09.67a4.57,4.57,0,0,0,1.66,1.37,4.46,4.46,0,0,0,2.29.72c.46-.14.73-.66,1.06-1.27a11.37,11.37,0,0,1,1.48-2c.5-.52.46-1.23-.15-2.06a9.58,9.58,0,0,0-3.58-2.4,6.49,6.49,0,0,0-3.42.13c-.42.16-.41.75-.39,1.21S850.18,26.59,850.23,27Zm12.82,4.59A7.91,7.91,0,0,0,865.6,31c1.09-.39,3.09-.8,4.28-1.1s2.75-.7,3.17-1.22-.11-2.32-1.5-3.35-4.11-1.13-5.42-.91c-.56.09-1.34,1.51-1.59,1.95a16.38,16.38,0,0,0-.61,2.33c-.13.41,0,1.08-.14,1.58s-.17.55-.71.78S862.63,31.54,863.05,31.57Zm12.74,24.06c-1.86-.26-4.92-.36-6.92-.45S861,54.43,860.05,54s-.64-1.34,0-1.7,1.47-.7,2.86-1.33,3.06-.87,3.84-1.26.61-1.35,0-1.88A18.64,18.64,0,0,0,863.52,46a31.23,31.23,0,0,0-5.67-1.56,51,51,0,0,0-8.73-.06,17,17,0,0,0-4.68,1.25,2.74,2.74,0,0,0-1.26,1.33c-.33.62-.16,1.72-.46,1.76s-.55-.55-.7-.36,0,1.64.41,1.75a24.49,24.49,0,0,0,3.63-.11c.79-.08,1-.54,1.69-.66a19.9,19.9,0,0,0,2.77-.36,22.86,22.86,0,0,1,2.35-.89,8.36,8.36,0,0,1,2.38.14c.54.09,1.16.23,1.18.82s-1,1-1.79,1.41a24.7,24.7,0,0,0-2.92,1.27,3.45,3.45,0,0,0-1.22,2.48c-.09.61-.13,1.13-.94,1.36a18.13,18.13,0,0,1-3.86.16,69.08,69.08,0,0,0-7.31.4,7.48,7.48,0,0,0-4.21,2,3.11,3.11,0,0,0-.77,2.85,5.28,5.28,0,0,0,2.31,1.71,2.84,2.84,0,0,0,3.23-.37c1.13-.84,5.44-2.29,7.59-2.63a95.46,95.46,0,0,1,12.85-.06c.83.25,1.27,1.13,1.29,2.6s-.58,2-2.16,2.84-3.94,1.64-4.23,1.94-.52.66-.86.64a2.78,2.78,0,0,0-1.62.27,40.44,40.44,0,0,1-6.51,1.69,37.65,37.65,0,0,1-6.77.17c-.83-.06-.7.59-.4.73a12.52,12.52,0,0,0,2.66.6c1.58.25,9.12,1.06,12,1.08s6.39,0,8-.66a3.74,3.74,0,0,0,2.48-2.21c.33-.81.17-2.79.17-4.9s0-4.94.47-5.16,3.69,0,6.92,0a52.68,52.68,0,0,1,9.74,1.07c1.49.4,1.17-.67.25-1.69A10.5,10.5,0,0,0,875.79,55.63Z" transform="translate(-9.02 -10.8)"/><path d="M920.52,55.26c-.74-.31-1.44-.64-1.88-.4s.06,1.34,0,2.84-1.33,7.5-1.54,8.8-.17,2.14-.54,2.37a3,3,0,0,1-4-.33c-1.72-1.84-.85-6.82-.72-7.63s1.1-5.27,1-6.1a1.14,1.14,0,0,0-1.69-1c-1,.39-2.15,2.12-4.54,3.45s-9,4.34-10.52,5.17a40.23,40.23,0,0,1-7.54,2.29c-1.21.19-1.48-.54-.25-1.37s1.66-1.36,2.43-1.79,3-2,4.11-2.75,4.75-3,5.52-3.69,5.48-4.17,6.25-4.81A14.17,14.17,0,0,0,908.87,48a3.72,3.72,0,0,1,.83-1.38c.36-.27.52-1.44-.27-1.6a49.13,49.13,0,0,0-7.46.5c-1.39.25-6.7,1.37-7.77,2.23s-1.83,1.25-3,.52a5.46,5.46,0,0,0-2.3-1,1.86,1.86,0,0,1-1-1.88c.2-.48,2.43-1.58,2.66-1.91s1.23-.5,2.56-.65,2.15-.6,4.07-.77,8.81-.56,9.33-.67a13.89,13.89,0,0,1,3-.37,15.85,15.85,0,0,0,2.42-.11c.48-.08.83-.73.77-2.08s-.21-4.42-.29-5.08-.78-1.85-.5-2.2c.41-.53,1.78-.06,2.43-.13s1.22-.87,2.16-1.09,2.31.56,2.38,2.62-.47,4.38-.16,5.75.41,2.13,1.78,2.25a8.45,8.45,0,0,1,3.75,1.38,3.28,3.28,0,0,0,1.38,1.16.73.73,0,0,1-.25,1.43c-1,0-1.91-.12-2.69-.15s-1.91-.38-2.6-.07-.21,2,.19,2.88-.19,2.75.19,3.44,1.22,2.81,1.94,3.22,1,.27,1.13.56a1.11,1.11,0,0,1-.13,1.16A8.79,8.79,0,0,1,920.52,55.26Zm58.33,14.92c-.27-.41-.89-.49-1.7-.58s-2.83-.3-4.5-.61a39.63,39.63,0,0,1-6.57-2,34.06,34.06,0,0,0-4.29-1.14,44.31,44.31,0,0,1-5-2.56c-.94-.53-4-2.2-5.33-3s-1-1.49-.17-1.91a39.81,39.81,0,0,0,3.39-2.53,35.27,35.27,0,0,0,3.93-3.33c.15-.37.35-1.07.86-1s1.31.78,2.15,1.68,1.06.18,1-.46a12,12,0,0,0-.95-2.37,8,8,0,0,0-1.7-2.85,16.33,16.33,0,0,1-2.8-3.93c-.35-.88.24-1,1.24-1.19a14.94,14.94,0,0,1,4.57.16c1,.24,2,.37,2,.1s-.3-.41-.39-.62a2.32,2.32,0,0,0-.46-1.12,9.54,9.54,0,0,0-2.77-2,10.64,10.64,0,0,0-5.15-.65,31.38,31.38,0,0,1-4.35-.19c-1.25-.09-2.09.22-2.87.19a11.93,11.93,0,0,0-2.32-.35c-1.37,0-2.31-.84-1.62-1.47a6.23,6.23,0,0,0,1.59-3.71,4.35,4.35,0,0,0-1.53-3.16,8.12,8.12,0,0,0-5.22.06c-.59.31-.28,2.63-.13,3.25s1.25,2.48,1.62,3.34.09,1.16-.37,1.41a6,6,0,0,1-1.88.19c-.75.08-3,.17-4.18.15s-1.57.14-2,.47a22.66,22.66,0,0,1-2.21,2,1.33,1.33,0,0,0-.27,2c.41.52,1,.77,2.58.71a43.34,43.34,0,0,0,4.46-.5c1.39-.19,6.83-.29,9.6-.33s4.65.17,5.19.48,0,1-.31,1.48a1.52,1.52,0,0,0,.1,1.6,2,2,0,0,1,0,1.48c-.1.4-.77,1-1,1.25A11,11,0,0,1,949.64,51a13.27,13.27,0,0,0-1.6,2c-.4.46-2.25,1.73-3,2.36a1.48,1.48,0,0,1-1.92.35c-.94-.33-1.52-1.41-2.29-1.93s-2.13-.9-2.81-1.5a1.44,1.44,0,0,1,.18-2.07c.48-.39,1,0,1.61-.1s.81-.88,1.19-1.5a1.46,1.46,0,0,0-.4-1.83,2.88,2.88,0,0,0-1.06-.71,6.3,6.3,0,0,0-1.13-1c-.48-.23-.62.1-1.35-.15s-1.36.58-1.67,1-2.5,1.94-3,2.61-1.48,2.35-.67,3.39a1.7,1.7,0,0,0,1.84.77c.37,0,1.1-.12,1.48.29s.33.8.62,1.09,2.13,1.52,2.63,1.83a14.15,14.15,0,0,1,2.5,1.5,1.22,1.22,0,0,1,.1,1.58,35.43,35.43,0,0,1-4.15,2.42c-1.54.81-5.45,3-8.06,3.6a28.56,28.56,0,0,1-5.77.63c-.85,0-.92.44-.52.73s1,.46,2.9.52a39.69,39.69,0,0,0,7.62-.5,62.5,62.5,0,0,0,7.11-2.1,45.47,45.47,0,0,0,5.37-2.59,2.41,2.41,0,0,1,2.35.11c.63.48,2.61,2,5.38,4A83.34,83.34,0,0,0,964,72.08a21.7,21.7,0,0,0,8.2,1.08,30,30,0,0,0,6-1.42A1.09,1.09,0,0,0,978.85,70.18Z" transform="translate(-9.02 -10.8)"/><path d="M102,47.62c-2.43,1-3.77-.21-6.9-.07-2.28.11-3.19,2.07-2,4.12.69,1.2,3.81.21,6.5.75a2.5,2.5,0,0,1,1.37,3.9c-.74.75-1.63,1.07-3.59.83-.73-.09-2.86-1.11-4.56-.16-1,.57-1.72,3.75-.26,4.06,2.65.57,6.27-.66,6.21,1.85,0,2.15-1.55,2.69-3.58,2.8a19.74,19.74,0,0,1-4.11-.48,1.21,1.21,0,0,0-1.21.68c-1.95,3.21-3.71,8.3-2.35,8.76s2.21.48,3,.78c3.57,1.32,4.06,2.57,3.28,4.63s-4,1.29-6.85.16a1.8,1.8,0,0,0-2.68,1.29c-.35,1.56,2.6,2.18,3.41,4.38.7,1.9-1,3.12-3,2.87-1.63-.21-2.81-2.09-3.47-3.3A1.68,1.68,0,0,0,79,84.82c-1.57.75-3,1.42-4.66,2.08-4.55,1.84-12.36,3-18.77,2.94a65.94,65.94,0,0,1-21.33-4.21c-1.77-.68-3.2-1.47-5-2a1.47,1.47,0,0,0-1.64.89c-1.14,2.31-2.14,2.78-3.58,3.06a2.87,2.87,0,0,1-3.13-3.43c.29-2,4.23-3.39,2.44-5-1.48-1.36-4.88.79-6.47-.4a2.7,2.7,0,0,1,.28-4.59c1.2-.77,3.84-.52,6-.47a.56.56,0,0,0,.56-.54c.07-4-2.66-7.58-5.12-8-1.3-.21-3.13.33-4.88,0a2.38,2.38,0,0,1-1.13-4.31c2.84-1.59,6,.61,6-3.07,0-2.93-3.65-1.61-6.28-2.13-1.73-.34-2.24-3.19-.1-4.34,1.67-.89,4.52.54,4.56-2.52,0-2.87-7.7.61-7.7-4.21,0-3.13,2.7-3.52,4.63-3.44A16,16,0,0,1,22,43.68c3.36,1.88,4.54,6.1,5.51,9.52,1.28,4.51,2.31,9.08,3.68,13.58a24.28,24.28,0,0,0,14.43,16c6,2.55,16.08,2.8,21.44-.66C76.72,75.88,80.9,59,82.17,53.42,83.59,47.19,87.58,43,92.61,41.88a16.78,16.78,0,0,1,8.79.14C104.53,42.89,104.59,46.58,102,47.62Z" transform="translate(-9.02 -10.8)"/><path d="M33.18,25c1.61-3.35,4.29-3.1,7.59-3.17s6.61.05,10.38.05c0-5.18-.36-8.91,2.35-10.47a6.79,6.79,0,0,1,4.75-.17c3,1.69,2.28,6.08,2.3,10.45,6,.27,9.64-.46,13.85,1a4.05,4.05,0,0,1,2.94,2.53c.61,1.79.43,19.47.15,20.69-.91,4-5.25,4.17-7.16,4.14-3.13-.05-6.26,0-9.73,0,0,3.53,0,7,.08,10.36,0,3.25,0,9.78-1,11.28a4.67,4.67,0,0,1-5.06,2.11,4,4,0,0,1-2.46-2.46c-.84-2.24-1-6.5-1-10s.08-7.31.08-11a10.17,10.17,0,0,0-2.75-.25c-2.19-.15-7.92.38-10.49-.93-3.28-1.67-4.69-3.6-4.72-7.16C33.15,36.31,32.5,26.43,33.18,25Zm8.51,15.83a21.77,21.77,0,0,0,8.27.61c1-.12,1.2-.05,1.19-1.25,0-2.6,0-5.87,0-8.64a.44.44,0,0,0-.45-.45H42.53a.71.71,0,0,0-.7.58A54.27,54.27,0,0,0,41.69,40.84Zm27.38.47c0-2.34.51-7-.33-10.09H60.93a.36.36,0,0,0-.36.36v9.78C62.64,41.59,68.25,41.76,69.07,41.31Z" transform="translate(-9.02 -10.8)"/><path d="M90.85,40.57c-1.36.7-3.1.31-4.12.47-6,.89-6.52,10.59-8.16,16A121,121,0,0,1,73.85,70.7c-.95,2.16-4.63,7.4-7.9,9.36-1.74,1-4.85,2.2-10.14,2.21-5.61,0-12-1.74-18.18-8.35-2.34-2.5-4.76-9.91-5.55-14.74-1-6.17-.31-15.12-6.78-17.83-1.12-.47-3-.12-4.42-.36a2.58,2.58,0,0,1-2-3.3c1.17-2.89,5.47-.32,6.92-2.61,2.18-3.47-2.61-2.76-4.53-2.92-3.77-.32-3-4.74.19-4.78,1.85,0,2.9.63,4.08-.1.81-.5.78-2,0-2.79-1.07-1.07-3.07-.57-4.6-.61-2.05-.05-2.9-.48-3.09-2.39-.21-2.09.64-3.56,3.74-3.62,1.1,0,2.2,0,3.3,0,2.47,0,4.57,1.68,6,3.93.77,1.23.49,5.81.48,6.85,0,4.41.21,8.83-.08,13.22-.34,5.1,2.39,8,6.21,10.27a.75.75,0,0,1,.36.55c.57,4.9,1.1,9.77,2.88,14.49,2,5.46,8.52,9.11,15.72,9.25a14.3,14.3,0,0,0,11-4.71c1.94-2.36,4.1-9,4.41-10.91a81.4,81.4,0,0,0,.39-8.15A57.11,57.11,0,0,0,77,49.21a7.22,7.22,0,0,0,2.6-6c-.12-5.82.15-11.66-.09-17.47-.28-6.47,2.87-8.07,8.71-7.73,4.59.26,6.16,2.46,5.57,4.19-1,3-4.83,1.73-7.39,1.74-2.41,0-2.27,2.82-1,3,2,.21,7.33-.31,7.81,2.26a2.86,2.86,0,0,1-3,3.16,12.86,12.86,0,0,0-4.72.48,2.38,2.38,0,0,0-1,1.94c0,1.22,5,.2,6.56,1.08C92.79,36.83,93.35,39.27,90.85,40.57Z" transform="translate(-9.02 -10.8)"/><path d="M581.67,41.81c2.5,0,4.72,1,5.34,2.54a5,5,0,0,1,0,3.28c-1.09,2.82-4.91.72-7.86,1.23-2.4.42-2.92,1.89-2,3.1.7,1,3-.08,4.13,0,1.7.17,3.2.77,3.26,2.6a3.23,3.23,0,0,1-2.64,3.21c-1.68.19-4.71-1-5.9-.14a1.88,1.88,0,0,0-.31,2.82c1.32,1.66,5.62,0,6.74,1.63A2.78,2.78,0,0,1,581.26,66c-2.36.93-5.18-.51-6.62-.16-3.46.82-5.68,5.57-3.84,8.35.72,1.09,2.76.73,4,1a3.14,3.14,0,0,1,2.82,3,2.84,2.84,0,0,1-3.21,3.36c-1.89-.21-3.91-2.71-5.39-1.09-1.68,1.83,2.3,4.38,2.73,5.85a3.19,3.19,0,0,1-1.84,4,3.62,3.62,0,0,1-3.88-1.33c-.79-1.07-.9-2.89-2.48-3.16-3.2-.55-9,5.47-24.29,5.47-14.75,0-22.54-7-25.68-6.92-1.89.08-2.62,3.56-5.11,3.78a3.11,3.11,0,0,1-2.59-1.86,3.33,3.33,0,0,1,.14-2.72c.65-1.33,3.36-2.29,2.49-3.61-1.64-2.48-4.18.69-6.29.77a2.46,2.46,0,0,1-2.19-3.85c1.63-2.55,6.72-.81,7.07-4.27.24-2.33-1.79-4.92-3.9-6s-4,.72-5.89.23c-2.24-.55-3.2-2-2.36-3.88.52-1.13,1.49-1.5,2.83-1.77,2.23-.45,4,.13,4.79-1.18A1.66,1.66,0,0,0,501,57.31c-1.79.17-2.39,1.33-4.64,1.36-1.41,0-3.08-.72-3.38-2.11s0-2.11,1.23-3.2c2-1.88,7.16-.26,6.52-3-.59-2.61-3.36-.31-5.63-.56-1.91-.21-3.65-1.41-3.56-3.31.13-2.7,3.05-4.23,6.74-4.22,6,0,13.57,6.19,16.08,12.69,1.48,3.84-.25,9.71,2.31,12.23,3.53,3.46,3.53,7.28,7.89,11,3.77,3.25,10.07,6.09,15.64,6.09,6.74,0,13.6-2.92,17.64-8.07,3-3.8,2.55-6.74,3.87-8.16s1.85-4.81,1.86-6.58a19.69,19.69,0,0,1,.71-6.16C566.62,48.06,574.25,41.81,581.67,41.81Z" transform="translate(-9.02 -10.8)"/><path d="M561.39,65.89c-1,1.37-1.38,1.47-2.88,1-1.85-.59-2.31-3.9-2.35-6.36,0-3.11,1-13.77-1.11-14a258.16,258.16,0,0,0-31-.38c-1.39.11-1.08,2.17-1.2,3.44-.33,3.48.17,7.44,0,11.36-.1,2.81.11,5.14-2.53,5.66-1.36.27-2,.13-3.23-1.22-1.52-1.64-.75-19.17-.62-21.2.3-4.32,3.26-4.12,6.79-4.86a3.16,3.16,0,0,0,1.83-1.21c1.15-3.54.46-11.74.53-15.44,0-2-2.34-1.19-4.42-1.59s-2.54-.92-2.39-2.81c.12-1.58,2.15-1.79,3.81-1.91,3.31-.24,10.33-.23,12.4-.22a.56.56,0,0,0,.56-.57,11.09,11.09,0,0,1,.13-2.19c.23-1.33.89-2.6,3.37-2.59,1.93,0,2.8.8,3,2a16.87,16.87,0,0,1,.27,2.62A.55.55,0,0,0,543,16c2.28-.07,10.61-.28,13.95.32,2.81.5,3.4,4.16,1.38,4.79-1.7.52-5.4-.53-5.39,1.14.06,6.5-.24,14.48.24,16.18s5,1.83,7.27,2.55c1.93.61,1.87,3,2,5.47C562.59,52.94,562.63,64.27,561.39,65.89ZM547.28,36.37H531.82a.35.35,0,0,0-.35.35v2.74a.34.34,0,0,0,.33.35c3,.14,12.38.19,15.42.19a.16.16,0,0,0,.16-.16l.07-3.3A.17.17,0,0,0,547.28,36.37Zm-15.46-3.62H547a.36.36,0,0,0,.36-.35V29.65a.35.35,0,0,0-.36-.35H531.82a.35.35,0,0,0-.36.35V32.4A.36.36,0,0,0,531.82,32.75Zm15.2-11H531.7a.35.35,0,0,0-.35.37c0,.68.11,2.14.16,2.94a.35.35,0,0,0,.35.33c5.22,0,10.58,0,15.48,0a16.46,16.46,0,0,0,0-3.27A.36.36,0,0,0,547,21.71Z" transform="translate(-9.02 -10.8)"/><path d="M525.34,64c-.4-4.59-.88-7.74.24-12.81.4-1.81,1-2,2.69-2.23,5.35-.61,17.48,0,24.37.23,2.31.08,1.31,10.08,1.23,14.6-.06,2.64-3.49,2.48-5.73,2.45-5.5-.08-11,.07-16.5,0C528.67,66.18,525.55,66.44,525.34,64Zm4.79-2.56c6.34.3,13.76.22,18.62.11a.8.8,0,0,0,.75-.59,22.42,22.42,0,0,0,.07-6.52.8.8,0,0,0-.79-.67H530.22a.78.78,0,0,0-.77.63,19.5,19.5,0,0,0-.06,6.38A.79.79,0,0,0,530.13,61.47Z" transform="translate(-9.02 -10.8)"/><path d="M507.32,41.33c-.81-.51-3.66-.87-3.15-3.11A3,3,0,0,1,507.51,36c1.87.07,2.86,1,3.34-1a1.9,1.9,0,0,0-2.3-2.26c-.62.08-1.38.68-2.4.91-1.87.43-4.37-.34-4.5-2.81-.12-2.29,2.14-3.4,4.05-3.49,1.63-.08,2.24.6,3.54.15,1.84-.65.12-2.86-.81-3.1-1.54-.38-3.26,1.39-4.77,1a4,4,0,0,1-2.8-2.84,4.31,4.31,0,0,1,1.5-4.12c1.44-1.22,3.87-1.16,5-.93,8.49,1.62,17.06,18.09,14.63,20.4-1.11,1.05-4.09,0-6.36,3.59-.55.87.2,5.69-1.18,6.16C512.84,48.18,511.8,44.17,507.32,41.33Z" transform="translate(-9.02 -10.8)"/><path d="M520.66,68.22c3.3-3.15,7.36,8.91,19.44,8.91,14.06,0,14.82-10.83,18.29-9.17,4.42,2.1-3.71,14.58-18.23,14.58C528.09,82.54,518,70.74,520.66,68.22Z" transform="translate(-9.02 -10.8)"/><path d="M555.55,37.73c-1.75-3,10.42-20.43,18.27-20A5.08,5.08,0,0,1,578,21a3.44,3.44,0,0,1-1.34,3.72c-3.34,2.16-5.81-1.71-7,.65-1.73,3.53,4.61,1.68,5.73,3.88,1.3,2.55-.92,4.52-3.23,4.48-1.67,0-3.16-1.72-4.62-1.36a2.13,2.13,0,0,0-1.63,3.13c.86,1.87,4.27.19,5.83.67s2.77,1.38,2.39,3.11c-.24,1.14-2,1.51-3.17,2-.94.39-4.53,7-6,6.83-2.18-.27-1-6.11-1.91-7.25C561.51,38.86,557.19,40.53,555.55,37.73Z" transform="translate(-9.02 -10.8)"/></svg>